<?xml version="1.0" encoding="UTF-8"?>
<svg width="29px" height="29px" viewBox="0 0 29 29" version="1.1" xmlns="http://www.w3.org/2000/svg" xmlns:xlink="http://www.w3.org/1999/xlink">
    <!-- Generator: Sketch 52.4 (67378) - http://www.bohemiancoding.com/sketch -->
    <title>logo_slider</title>
    <desc>Created with Sketch.</desc>
    <g id="Page-1" stroke="none" stroke-width="1" fill="none" fill-rule="evenodd">
        <g id="Герб" transform="translate(-161.000000, -2725.000000)" fill="#000000">
            <g id="logo_slider" transform="translate(161.000000, 2725.000000)">
                <path d="M19.7663759,9.7381016 C19.3150999,9.34244378 18.6660402,9.35148739 18.2936245,9.46643164 C18.537621,9.16686214 19.1057404,8.92123777 19.273228,8.89143908 C19.4007429,8.93923455 19.7663307,9.31499643 19.7663307,9.73805638 L19.7663759,9.7381016 Z M21.2072939,8.09971648 C20.9105279,6.51211121 17.2208718,7.5640184 15.3627722,6.88968182 C15.3271404,7.35248842 15.9347804,8.09406422 16.516013,8.36853771 C15.5224823,9.23075523 14.6305113,10.967987 14.4505435,13.090386 C14.2711184,10.967987 13.3791022,9.23075523 12.3856167,8.36853771 C12.9668041,8.09406422 13.5749415,7.35248842 13.5388575,6.88968182 C11.6807579,7.5640184 7.99105656,6.51211121 7.69374797,8.09971648 C7.63121143,8.43568649 7.79286591,8.94778076 7.96754318,9.09496546 C7.99874363,8.98847699 8.1618903,8.64016245 8.67620025,8.5620709 C11.2756947,8.16930704 13.4459796,12.1756703 11.4869534,13.795516 C11.4571095,13.8201146 11.4738402,13.865604 11.5143103,13.865604 L17.3876811,13.865604 C17.4276539,13.865604 17.4445202,13.8201146 17.4151737,13.795516 C15.4555596,12.1756703 17.6258897,8.16930704 20.225339,8.5620709 C20.7401464,8.64016245 20.9027052,8.98847699 20.9340413,9.09492025 C21.1086734,8.94778076 21.2703278,8.43573171 21.2072939,8.09967126 L21.2072939,8.09971648 Z M21.8395325,4.45586621 C21.7928675,4.30587798 23.3170318,4.30212488 23.3170318,5.2560898 C23.3170318,5.89547284 22.4053458,6.19829803 22.4053458,6.86178229 C22.4053458,7.17080235 22.7377888,7.39748037 22.8398007,7.39748037 C22.6049834,6.33223386 23.5759503,6.88968182 23.8381245,7.08891248 C23.317077,5.65640508 24.4900781,5.66544869 24.3745913,5.00861149 C24.2942388,4.54955798 23.274753,4.6882417 22.9057286,4.45586621 C22.2509714,4.0437038 21.4763864,2.43991048 20.9658748,4.0437038 C21.9175336,4.92726424 21.3637935,6.22764454 20.1557032,6.22764454 C20.1557032,6.22764454 20.1489205,6.418329 20.1599989,6.43347704 C21.6009621,6.36293691 22.1032441,5.30393049 21.8395777,4.45586621 L21.8395325,4.45586621 Z M5.0283708,7.08891248 C5.29063541,6.88968182 6.26146666,6.33223386 6.02723723,7.39748037 C6.1287065,7.39748037 6.46114951,7.17080235 6.46114951,6.86178229 C6.46114951,6.19829803 5.54941823,5.89547284 5.54941823,5.2560898 C5.54941823,4.30207967 7.07362781,4.30587798 7.02691758,4.45586621 C6.76374861,5.30388527 7.266121,6.36298212 8.70699374,6.43347704 C8.71757476,6.418329 8.71083727,6.22764454 8.71083727,6.22764454 C7.50324438,6.22764454 6.94945909,4.9271738 7.90066571,4.0437038 C7.39015407,2.43991048 6.6155691,4.0437038 5.96081193,4.45586621 C5.59183275,4.68828692 4.57230168,4.54955798 4.49194923,5.00861149 C4.37691454,5.66544869 5.54937302,5.6564503 5.02832558,7.08891248 L5.0283708,7.08891248 Z M9.11978919,9.73805638 C9.57151738,9.34239856 10.2205771,9.35144217 10.5925406,9.46638642 C10.3495389,9.16681693 9.78042471,8.92119255 9.6134345,8.89139386 C9.48591964,8.93918933 9.11983441,9.31495121 9.11983441,9.73801116 L9.11978919,9.73805638 Z M15.1361394,0.856917449 L14.433225,-0.0001 L13.7303559,0.856917449 L14.4332702,1.75888163 L15.1362298,0.856917449 L15.1361394,0.856917449 Z M19.1486523,3.44836313 L18.6487669,2.83927618 L18.1493789,3.44836313 L18.6487669,4.04365859 L19.1486523,3.44831791 L19.1486523,3.44836313 Z M23.2030372,21.0533727 L22.5693968,20.3827892 L21.9357565,21.0533727 L22.5693968,21.6415689 L23.2030372,21.0532822 L23.2030372,21.0533727 Z M10.7175685,3.4482727 L10.2176379,2.83918574 L9.71824991,3.4482727 L10.2176379,4.04361337 L10.7175233,3.4482727 L10.7175685,3.4482727 Z M9.28573939,6.43338661 L11.150079,6.43338661 C12.7175171,6.43338661 13.4228732,5.47132766 13.6359858,4.63700966 L15.2309164,4.63700966 C15.4440742,5.47137288 16.1488426,6.43343182 17.7168684,6.43343182 L19.5812081,6.43343182 C19.5812081,6.43343182 19.9073206,5.99097334 19.9890748,5.77189195 C20.2835798,4.98347026 19.9073206,4.61575719 19.3583736,4.61575719 L18.6487217,5.25889332 L17.9390699,4.61575719 C17.3901229,4.61575719 17.0139088,4.98347026 17.3083687,5.77189195 C17.3458996,5.87272817 17.4358835,6.02077202 17.5209839,6.15090953 C16.859444,6.06002128 16.0150876,5.60720786 15.8298293,4.63700966 C15.8298293,4.63700966 16.3186363,3.86048032 16.441358,3.54626018 C16.8820982,2.41626144 16.3191789,1.95431398 15.4959845,1.95431398 L14.4331798,3.20368834 L13.3704655,1.95431398 C12.5472712,1.95431398 11.9843518,2.41621623 12.4255442,3.54626018 C12.5478138,3.86052554 13.0370729,4.63705488 13.0370729,4.63705488 C12.8513625,5.60725308 12.0070061,6.0600665 11.3454662,6.15095475 C11.4311091,6.02081724 11.5205956,5.87272817 11.5581266,5.77193717 C11.8520438,4.98351548 11.4768246,4.6158024 10.927335,4.6158024 L10.2177283,5.25893854 L9.50812169,4.6158024 C8.95872255,4.6158024 8.58341284,4.98351548 8.87742052,5.77193717 C8.95917473,5.99101855 9.28587504,6.43347704 9.28587504,6.43347704 L9.28573939,6.43338661 Z M28.5606962,12.2124778 C28.2007607,12.3947065 26.0896662,13.3837154 23.3853111,13.0179015 C23.4133178,12.8888971 23.4370701,12.7590058 23.4565295,12.6284385 C25.2563882,12.4131102 26.719463,12.1078885 27.6518589,11.5892376 C28.7146637,10.9976952 29.1794146,9.58562638 28.6429478,8.53503052 C28.6290659,8.50853275 28.5905854,8.50383007 28.5713225,8.52598691 C28.2774052,8.8643987 26.4288919,10.8751544 23.5167147,11.5002485 C23.50926,11.3494145 23.4954563,11.1989614 23.4753402,11.049289 C24.8897604,10.247121 26.2706288,9.32286437 26.9283251,8.47773926 C27.9223532,7.19996798 27.8308771,5.5702195 26.8850515,4.73920243 C26.8752285,4.73077841 26.8622539,4.72699177 26.8494418,4.72880971 C26.8366296,4.73062765 26.8252206,4.73787412 26.8181288,4.74869821 C26.518921,5.24225308 23.7178897,9.76961857 20.6425658,11.7240326 C20.6050429,11.7480403 20.5672072,11.7715557 20.5290686,11.7945727 C20.4409838,11.8480656 20.4313976,11.9625577 20.5064595,12.0307013 C20.8609689,12.3520206 21.0813617,12.799227 21.0813617,13.2956759 C21.0813617,14.1587977 20.4159782,14.8766793 19.5364874,15.032365 C19.0895071,15.1189575 18.444291,15.0938615 17.824623,14.8890238 C17.7967235,14.8799802 17.7678744,14.8984292 17.7678744,14.9263739 L17.7678744,17.6602564 C17.7678744,17.7042083 17.8347971,17.7151059 17.8506234,17.6729175 C18.2272896,16.6749554 19.3550275,16.4628828 19.8482206,16.4628828 C20.0257466,17.5295763 20.3427702,18.4131367 20.7546161,18.8886948 C21.4251996,19.6614711 22.52029,19.6506187 22.9951698,19.1163224 C23.0030044,19.1074794 23.0063657,19.0955395 23.0042949,19.0839081 C23.0022242,19.0722766 22.9949487,19.0622304 22.9845436,19.0566346 C22.7055483,18.8962914 21.1091708,17.9162357 20.7896601,16.3100911 C20.9158184,16.2665461 21.0389019,16.2173036 21.1568306,16.1590628 C21.6720901,17.011875 22.4221217,17.7714023 23.0259181,18.0614761 C24.0401587,18.5480221 24.9686658,18.3113509 25.3805117,17.5991668 C25.3954337,17.5740708 25.3771656,17.5428252 25.3468243,17.5400217 C24.7194692,17.4898296 22.79404,16.9380339 21.9741918,15.5936113 C22.0680644,15.5074257 22.1599475,15.4175322 22.2455904,15.3219413 C23.1033766,15.9749802 24.3163504,16.5523241 25.1847628,16.6701623 C26.2008121,16.8083486 27.3521538,16.4841805 27.3800985,15.3025428 C27.3805507,15.2788485 27.3593887,15.25945 27.3344283,15.2609422 C26.9730457,15.2826468 24.5814186,15.386784 22.8772864,14.4085822 C22.9364844,14.2960463 22.9916848,14.1814525 23.0427844,14.0650155 C23.0427844,14.0650155 25.6177708,14.6736503 26.8378438,14.4719779 C28.050275,14.2718428 28.7604243,13.3679795 28.623278,12.243633 C28.6194345,12.2155978 28.5867418,12.1990932 28.5607415,12.2123421 L28.5606962,12.2124778 Z M5.82362041,14.0651512 C5.87487261,14.1815926 5.93022388,14.2961863 5.9895706,14.4087178 C4.28598107,15.3864222 1.89530347,15.2832347 1.53256438,15.2610778 C1.50706141,15.2595856 1.48589937,15.2799337 1.48635155,15.3031306 C1.51483891,16.4843161 2.66563794,16.808439 3.68168723,16.6702979 C4.54969266,16.5524597 5.76307346,15.9751158 6.62085961,15.322077 C6.70699997,15.4176679 6.79843084,15.5075613 6.89216783,15.5937017 C6.07191265,16.9380339 4.14698083,17.4898748 3.51958057,17.5400669 C3.48928448,17.5428704 3.47146858,17.5741161 3.48593835,17.5992121 C3.89778423,18.3113961 4.82633661,18.5480221 5.84102935,18.0615213 C6.44437362,17.7714476 7.19440519,17.0119202 7.70970994,16.1591985 C7.82800032,16.2173489 7.95117425,16.2665913 8.07674474,16.3101363 C7.75727931,17.9162809 6.16094696,18.8963367 5.88186124,19.0566798 C5.87155801,19.062369 5.86437712,19.072409 5.86232273,19.0839979 C5.86026833,19.0955868 5.86356043,19.1074835 5.87128022,19.1163676 C6.34616004,19.650664 7.44170263,19.6615163 8.11228612,18.88874 C8.52422243,18.4131367 8.84074869,17.5296215 9.0182747,16.4629732 C9.51187479,16.4629732 10.6391152,16.6750458 11.0158267,17.6730079 C11.0321956,17.7151511 11.0990279,17.7042083 11.0990279,17.6602564 L11.0990279,14.9263739 C11.0990279,14.8984744 11.0697266,14.8800254 11.0418271,14.8890238 C10.4221591,15.0938615 9.77698814,15.1190027 9.33050524,15.032365 C8.45056225,14.8767245 7.78517884,14.158843 7.78517884,13.2956759 C7.78517884,12.7991818 8.00597851,12.3515232 8.36008096,12.0302039 C8.43559508,11.9625125 8.42551146,11.8479752 8.33792412,11.7945275 C8.29946723,11.7714928 8.26130022,11.7479776 8.22343205,11.7239873 C5.15005253,9.77056815 2.35042301,5.24650358 2.04877349,4.74955736 C2.0347559,4.7263605 2.00111368,4.72165783 1.98040382,4.73960939 C1.0359799,5.57107865 0.944096851,7.20037495 1.93807973,8.47764883 C2.59577608,9.32277393 3.97650883,10.2470306 5.39056727,11.0491986 C5.37061841,11.1988629 5.35698063,11.3493009 5.34969017,11.5001128 C2.4399095,10.8754709 0.59288836,8.86797092 0.296031949,8.52729823 C0.276316885,8.50410138 0.236796321,8.50884927 0.223366564,8.53534704 C-0.312014991,9.58639509 0.152690773,10.9975596 1.21454593,11.5891019 C2.14694184,12.1077528 3.61001664,12.4129746 5.40987537,12.6283029 C5.42931974,12.7588697 5.45305699,12.888761 5.48104856,13.0177658 C2.7795874,13.3831275 0.669397278,12.39647 0.306658187,12.2127943 C0.279708238,12.1990932 0.246970379,12.2161404 0.243624244,12.2445374 C0.107065773,13.3689291 0.816627205,14.2718428 2.02905842,14.4719779 C3.24867931,14.6736503 5.82362041,14.0650155 5.82362041,14.0650155 L5.82362041,14.0651512 Z M22.5693516,22.5051882 L21.6311678,21.7669585 C21.2568529,21.9898834 20.9816559,22.3439407 20.8748509,22.7589066 C20.3105298,22.8379477 18.7718504,22.4962802 18.9214317,22.2696474 C20.6077932,19.8977805 19.3179034,18.4856665 17.7677839,18.5642102 L17.7677839,20.1571512 C17.7677839,20.6687028 17.321301,21.0832166 16.7713593,21.0832166 L15.7009579,21.0832166 C14.9330652,21.0832166 14.4331798,21.8550885 14.4331798,21.8550885 C14.4331798,21.8550885 13.9333849,21.0832166 13.1654922,21.0832166 L12.0950004,21.0832166 C11.5446968,21.0832166 11.0991635,20.6687028 11.0991635,20.1571512 L11.0991635,18.5642554 C9.5489988,18.4857569 8.25811429,19.897871 9.94497315,22.2696926 C10.0931527,22.4939741 8.51169704,22.8531862 7.76984993,22.7622979 C7.57450801,22.5597211 7.29252833,22.4319802 6.97690643,22.4319802 C6.84273511,22.4320181 6.70963845,22.4559029 6.58382604,22.5025203 C6.58382604,22.5025203 3.66880009,19.7426374 3.61539759,19.7156423 L3.63945358,19.659798 C3.80540378,19.3493762 3.55141406,19.0110096 3.39075438,19.0347039 C3.57736922,18.8108746 3.5860963,17.8307736 2.55069369,17.6040956 C2.58098978,17.8009749 2.59636391,18.2027824 2.59636391,18.2027824 C2.59636391,18.2027824 1.79727077,17.7706789 1.39600591,18.1435468 C1.04339566,18.5609997 1.53270003,19.3181305 1.53270003,19.3181305 C1.53270003,19.3181305 1.12374811,19.3280785 0.922166103,19.3110313 C1.21857033,20.3133343 2.21255322,20.242342 2.4276102,20.0445583 C2.41359261,20.2040423 2.773076,20.4311725 3.07757426,20.2489438 L3.21132921,20.1841463 C3.23493303,20.215799 6.07399268,22.8981329 6.07399268,22.8981329 C5.94358386,23.0916661 5.88154471,23.3292417 5.92432098,23.5824175 C5.99169585,23.9780753 6.32133534,24.3059965 6.74231526,24.391142 C7.03957863,24.4508299 7.31911654,24.3930412 7.54330756,24.2619541 L8.29483133,24.9595328 C8.36175403,25.0201249 8.4521901,25.0579272 8.55316198,25.0508732 C8.73697329,25.0385287 8.87457178,24.8894448 8.86064463,24.7186563 C8.85485672,24.6415143 8.81542659,24.5753151 8.76102929,24.5251231 C8.74900129,24.511829 7.99557837,23.8123964 7.99557837,23.8123964 C8.61710028,23.3764945 9.77517942,23.0694641 10.7364244,23.0694641 C10.9053138,23.0694641 10.9846715,22.9265751 10.9264758,22.7863991 C10.4910262,21.7391494 11.4273108,20.9806168 12.3957907,21.5981596 C12.8182629,21.867433 13.2474272,22.397931 13.5707362,23.282848 C11.9815935,23.6676535 9.98643808,24.7275642 9.58277667,25.8846938 C9.42736228,26.331448 9.94072265,26.9404445 10.5642342,27.0630758 C10.5752736,27.0655123 10.586829,27.0634262 10.5963195,27.0572832 C10.6058101,27.0511403 10.6124451,27.0414524 10.6147427,27.0303832 C10.9404934,25.3030542 12.7980504,24.0158323 13.7646311,23.7972031 C13.8132405,23.9273406 13.7973238,23.8852427 13.8459332,24.0148828 C12.7932573,24.5127333 11.7723244,25.5628318 11.4807585,26.8111662 C11.3470036,27.3828578 11.9844875,27.8982078 12.5108254,28.039288 C12.537278,28.046342 12.5632783,28.0278931 12.5647253,28.0023449 C12.6647928,26.4236476 13.3619193,25.082978 13.9863804,24.4729867 C14.0034868,24.5922131 14.0163369,24.7120114 14.0249062,24.8321536 C14.0249062,24.8321536 13.3855231,26.6138799 13.3855231,27.9138532 C13.3855231,28.5185992 14.2842316,28.9407548 14.417037,28.9999 C14.5829872,28.9407548 15.4812435,28.5185992 15.4812435,27.9138532 C15.4812435,26.6138346 14.8418604,24.8321536 14.8418604,24.8321536 C14.8505788,24.7120059 14.8635797,24.5922075 14.8808384,24.4729867 C15.5048473,25.082978 16.2024259,26.4231502 16.3020413,28.0018023 C16.3034882,28.0273957 16.3299408,28.046342 16.3558507,28.0392428 C16.8827313,27.898253 17.519763,27.382903 17.3864602,26.8112566 C17.0943517,25.562877 16.0739615,24.5128238 15.0212404,24.0149732 C15.0693524,23.8852879 15.0534808,23.9273859 15.1020902,23.7972484 C16.0691684,24.0158776 17.9262731,25.303009 18.2519787,27.030338 C18.2543313,27.041386 18.2609847,27.0510432 18.2704699,27.0571772 C18.2799551,27.0633111 18.2914917,27.0654173 18.3025324,27.0630306 C18.9255465,26.9404897 19.4398565,26.3314028 19.2834925,25.884739 C18.8808259,24.7276095 16.8851279,23.6676987 15.2960304,23.2828932 C15.6197915,22.3979762 16.0489107,21.8674782 16.4713376,21.5982048 C17.4393653,20.9806621 18.3756048,21.7392851 17.9402003,22.7865348 C17.8819595,22.9265751 17.9608649,23.0694641 18.1302517,23.0694641 C19.2175194,23.0694641 20.5569229,23.4622731 21.0870591,23.9889728 C21.4258327,24.4972236 22.0517407,24.8223412 22.7580465,24.7527055 C23.560531,24.674207 24.2148812,24.0712697 24.3053172,23.325986 C24.3842227,22.6729019 24.0464892,22.0865596 23.5081233,21.7671394 L22.5693968,22.5054143 L22.5693516,22.5051882 Z M15.6542477,17.7477985 C15.9886351,17.6239011 16.5125764,17.7241947 16.4947605,18.206852 C16.4904648,18.316144 16.6439801,18.316144 16.6550133,18.2044555 C16.7550808,17.4818713 16.266726,17.273597 15.7558074,17.3583356 C15.6923213,17.1098625 15.6403657,16.8926802 15.5811753,16.6773519 C15.5340581,16.5032625 15.5166944,16.1762004 15.7183216,16.1762004 C15.827071,16.1762004 15.7833,16.4805178 15.7732163,16.6115597 C15.7640371,16.7265492 15.8054116,16.7961397 15.8987868,16.7994406 C15.9570277,16.801792 16.029693,16.727544 16.0729667,16.6782563 C16.3655274,16.3474864 16.4333544,15.8354825 16.0907826,15.5885016 C15.8041002,15.3811769 15.0862187,15.5354609 14.8888872,15.8307346 C14.8591337,15.7194983 14.7166969,15.535913 14.6483272,15.4558771 C14.5819924,15.377876 14.5646739,15.3243831 14.6565569,15.2557873 C14.6998758,15.2226425 14.8307368,15.0925502 14.8307368,14.958117 C14.8307368,14.8786237 14.7691498,14.7318911 14.5733557,14.7318911 C14.4188909,14.7318911 14.2471528,14.838877 14.2471528,15.0773569 C14.2471528,15.1303977 14.2601304,15.1872368 14.29427,15.2482811 C14.196599,15.2321383 13.9315309,15.2387853 13.7953794,15.2723823 L15.6779871,20.4386335 C16.2168505,20.172661 16.61183,19.7515002 16.61183,19.2995911 C16.61183,18.9143334 16.0445246,19.0421196 15.7688754,19.3426387 C15.6803385,18.8542839 15.601433,18.4032792 15.5153379,17.9536763 C15.4918245,17.8296884 15.5548132,17.7852391 15.6543833,17.7478437 L15.6542477,17.7477985 Z M12.9922619,14.2384267 L13.3877388,15.337225 C13.0490557,15.4177131 12.5044497,15.664694 12.5044497,15.9916656 C12.5044497,16.4271153 13.2746937,16.710542 13.720227,16.6764476 C13.6980702,16.7758368 13.7236184,16.8643285 13.7928924,16.9452236 C13.6312379,16.9452236 13.3262423,17.0204664 13.2261295,17.1283566 C12.9899105,16.9083257 12.6203887,16.828335 12.4447619,16.9622708 C12.2682307,17.0971562 12.2629854,17.3257334 12.4472036,17.5841092 C12.5756229,17.7629918 12.6237801,17.939523 12.4794441,18.1467573 C13.0163631,18.1467573 12.8185794,17.4487717 13.0288432,17.4487717 C13.0014411,17.5841092 13.0182622,17.7407445 13.079397,17.914427 C13.1198219,18.0298686 13.1198219,18.1117585 13.0505479,18.2229497 C12.8773628,18.4998197 12.6079538,19.1358114 12.6444899,19.7108039 C12.4684109,19.7098091 12.3789244,19.6667164 12.4410088,19.4263825 C12.46407,19.3368508 12.4087683,19.2730029 12.3356507,19.3832897 C12.2548009,19.5049262 12.2158229,19.7126579 12.2158229,19.8015565 C12.2158229,20.3136508 12.8258143,20.4167931 13.0586872,20.3084507 C13.7323002,20.9602687 15.05538,20.7864054 15.4984715,20.5677762 L13.1689287,14.1758449 C13.1212689,14.0552032 12.9505256,14.1129014 12.9923523,14.2383363 L12.9922619,14.2384267 Z M12.911412,19.5035245 C12.8633,19.2403555 13.2294305,18.7699975 13.6951762,18.3161893 C13.5960583,18.6119152 13.6576453,19.1216129 13.8519924,19.2971946 C13.5142137,19.2971946 13.112994,19.3605902 12.9114572,19.5035245 L12.911412,19.5035245 Z" id="Shape"></path>
            </g>
        </g>
    </g>
</svg>